<!-- Generated by IcoMoon.io -->
<svg version="1.1" xmlns="http://www.w3.org/2000/svg" width="32" height="32" viewBox="0 0 32 32">
<path d="M30 4.667h-28c-1.105 0-2 0.895-2 2v0 18.667c0 1.105 0.895 2 2 2v0h28c1.105 0 2-0.895 2-2v0-18.667c0-1.105-0.895-2-2-2v0zM29.573 6l-13.573 10.493-13.573-10.493zM1.333 25.060v-18.22l10.273 7.94zM2.273 26l10.393-10.393 2.92 2.26c0.111 0.086 0.253 0.138 0.407 0.138s0.295-0.052 0.408-0.14l-0.002 0.001 2.933-2.26 10.393 10.393zM30.667 25.060l-10.273-10.28 10.273-7.94z"></path>
</svg>
