<!-- Generated by IcoMoon.io -->
<svg version="1.1" xmlns="http://www.w3.org/2000/svg" width="32" height="32" viewBox="0 0 32 32">
<path fill="none" stroke-linejoin="miter" stroke-linecap="butt" stroke-miterlimit="10" stroke-width="1.28" stroke="#000" d="M19.339 22.561c0 0 2.591-1.484 3.27-1.84 0.676-0.358 1.377-0.448 1.803-0.188 0.644 0.394 6.056 3.994 6.512 4.313s0.675 1.231 0.049 2.125c-0.624 0.893-3.503 4.426-4.723 4.388-1.222-0.040-6.301-0.151-15.88-9.732-9.577-9.578-9.69-14.659-9.729-15.881s3.494-4.1 4.387-4.725c0.895-0.624 1.808-0.389 2.125 0.050 0.361 0.5 3.919 5.894 4.311 6.513 0.268 0.422 0.17 1.127-0.188 1.804-0.356 0.678-1.839 3.27-1.839 3.27s1.046 1.784 4.582 5.32c3.537 3.537 5.32 4.584 5.32 4.584z"></path>
</svg>
