<!-- Generated by IcoMoon.io -->
<svg version="1.1" xmlns="http://www.w3.org/2000/svg" width="32" height="32" viewBox="0 0 32 32">
<path d="M28.401 3.831c-0.312 0.014-0.615 0.1-0.889 0.21-0.271 0.109-1.83 0.774-4.133 1.759s-5.296 2.266-8.262 3.538c-5.934 2.542-11.765 5.044-11.765 5.044l0.042-0.016c0 0-0.352 0.118-0.709 0.366-0.178 0.124-0.37 0.285-0.527 0.519s-0.272 0.566-0.229 0.916c0.152 1.232 1.429 1.581 1.429 1.581l0.005 0.003 5.697 1.95c0.145 0.485 1.728 5.767 2.076 6.886 0.192 0.619 0.372 0.975 0.56 1.219 0.094 0.122 0.192 0.216 0.301 0.285 0.043 0.027 0.089 0.048 0.134 0.066 0.001 0 0.002-0 0.002 0 0.006 0.002 0.011 0.003 0.016 0.005l-0.015-0.004c0.010 0.004 0.021 0.011 0.031 0.015 0.020 0.007 0.033 0.007 0.059 0.012 0.652 0.228 1.192-0.195 1.192-0.195l0.023-0.017 3.5-3.246 5.68 4.429 0.071 0.032c0.994 0.441 1.893 0.195 2.391-0.21s0.694-0.927 0.694-0.927l0.021-0.055 4.174-21.754c0.107-0.487 0.122-0.907 0.021-1.287s-0.345-0.711-0.652-0.894c-0.307-0.183-0.628-0.242-0.94-0.229zM28.435 5.133c0.127-0.006 0.22 0.009 0.25 0.026s0.043 0.015 0.071 0.122c0.028 0.107 0.044 0.333-0.034 0.686l-0.003 0.008-4.15 21.628c-0.010 0.022-0.096 0.222-0.294 0.383-0.201 0.164-0.425 0.292-1.020 0.043l-6.39-4.977-1.857-1.394 10.439-12.281c0.095-0.111 0.153-0.256 0.153-0.415 0-0.354-0.287-0.64-0.64-0.64-0.006 0-0.012 0-0.017 0l0.001-0c-0.127 0.003-0.243 0.043-0.341 0.109l0.002-0.001-15.105 10.070-5.706-1.954c0 0-0.567-0.315-0.594-0.535-0.002-0.012-0.008-0.001 0.021-0.045s0.103-0.118 0.196-0.182c0.186-0.129 0.397-0.207 0.397-0.207l0.021-0.008 0.021-0.009c0 0 5.831-2.502 11.765-5.044 2.967-1.271 5.959-2.552 8.261-3.536s3.964-1.692 4.105-1.749c0.16-0.064 0.32-0.090 0.446-0.096zM21.512 12.027l-7.92 9.317c-0.011 0.014-0.023 0.029-0.034 0.044l-0.001 0.002c-0.011 0.015-0.023 0.033-0.033 0.051l-0.002 0.003c-0.042 0.071-0.072 0.154-0.083 0.243l-0 0.003c0 0.001 0 0.002 0 0.003s0 0.002 0 0.003v-0l-1.031 4.637c-0.017-0.050-0.029-0.068-0.047-0.128v-0.001c-0.328-1.052-1.821-6.035-2.027-6.724l11.18-7.454zM14.49 22.867l1.422 1.067-2.090 1.938 0.668-3.005z"></path>
</svg>
