<?xml version="1.0"?><svg viewBox="0 0 48 48" xmlns="http://www.w3.org/2000/svg"><title/><g data-name="Layer 23" id="Layer_23"><path d="M21,31H8a3,3,0,0,1-3-3V22a3,3,0,0,1,3-3H21a3,3,0,0,1,3,3v6A3,3,0,0,1,21,31ZM8,21a1,1,0,0,0-1,1v6a1,1,0,0,0,1,1H21a1,1,0,0,0,1-1V22a1,1,0,0,0-1-1Z"/><path d="M25,16H15a1,1,0,0,1-.92-.62,1,1,0,0,1,.21-1.09l10-10a1,1,0,0,1,1.09-.21A1,1,0,0,1,26,5V15A1,1,0,0,1,25,16Zm-7.59-2H24V7.41Z"/><path d="M10.28,22.29a1.62,1.62,0,0,1,1.19.48A1.57,1.57,0,0,1,12,23.94a1.6,1.6,0,0,1-.49,1.17,1.65,1.65,0,0,1-1.19.47H9.42v1.61h-1v-4.9Zm0,2.39a.64.64,0,0,0,.51-.22.7.7,0,0,0,.21-.52.73.73,0,0,0-.21-.54.66.66,0,0,0-.51-.21H9.42v1.49Z"/><path d="M14.53,22.29a2.24,2.24,0,0,1,1.68.71,2.57,2.57,0,0,1,0,3.48,2.2,2.2,0,0,1-1.68.71H12.58v-4.9Zm0,4a1.34,1.34,0,0,0,1-.43,1.71,1.71,0,0,0,0-2.2,1.37,1.37,0,0,0-1-.42h-1v3.05Z"/><path d="M20.5,23.22h-2v1.16h1.91v.92H18.54v1.89h-1v-4.9H20.5Z"/><path d="M40,43H33.43a1,1,0,0,1,0-2H40a1,1,0,0,0,1-1V7a1,1,0,0,0-1-1H25.41L16,15.41V20a1,1,0,0,1-2,0V15a1,1,0,0,1,.29-.71l10-10A1,1,0,0,1,25,4H40a3,3,0,0,1,3,3V40A3,3,0,0,1,40,43Z"/><path d="M30.57,43H17a3,3,0,0,1-3-3V30a1,1,0,0,1,2,0V40a1,1,0,0,0,1,1H30.57a1,1,0,0,1,0,2Z"/><path d="M32,45a1,1,0,0,1-.81-.42l-5-7A1,1,0,0,1,27,36h1V31a1,1,0,0,1,1-1h6a1,1,0,0,1,1,1v5h1a1,1,0,0,1,.81,1.58l-5,7A1,1,0,0,1,32,45Zm-3.06-7L32,42.28,35.06,38H35a1,1,0,0,1-1-1V32H30v5a1,1,0,0,1-1,1Z"/></g></svg>